# xmcd
#
# Track frame offsets:
#	150
#	9573
#	19406
#	30222
#	42672
#	54470
#	71445
#	83567
#	92793
#	102468
#	113510
#	125813
#	138014
#	149161
#
# Disc length: 2133 seconds
# Revision: 2
# Processed by: cddbd v1.5.2PL0 Copyright (c) Steve Scherf et al.
# Submitted via: dBpowerAMP V12.0
#
DISCID=bd08530e
DTITLE=Susan Raye -  Buck Owens - The Very Best of Buck Owens and Susan Raye
DYEAR=2011
DGENRE=Country
TTITLE0=We're Gonna Get Together
TTITLE1=Togetherness
TTITLE2=Together Again
TTITLE3=Cryin' Time
TTITLE4=Love Is Strange
TTITLE5=The Great White Horse
TTITLE6=Today I Started Loving You Again
TTITLE7=I Don't Care (Just As Long As You Love Me)
TTITLE8=Think Of Me When You're Lonely
TTITLE9=Your Tender Loving Care
TTITLE10=Looking Back To See
TTITLE11=The Good Ol' Days (Are Here Again)
TTITLE12=Sweethearts In Heaven
TTITLE13=Love Makes The World Go Around
EXTD=
EXTT0=
EXTT1=
EXTT2=
EXTT3=
EXTT4=
EXTT5=
EXTT6=
EXTT7=
EXTT8=
EXTT9=
EXTT10=
EXTT11=
EXTT12=
EXTT13=
PLAYORDER=
